# Blender v2.77 (sub 0) OBJ File: 'basic_table.obj.blend'
# www.blender.org
mtllib basic_table.mtl
o Cube
v -1.037517 0.869933 0.283500
v -1.037517 0.869933 -1.123822
v 0.369804 0.869933 -1.123822
v 0.369804 0.869933 0.283500
v -1.037518 0.967713 0.283499
v -1.037517 0.967713 -1.123822
v 0.369804 0.967713 -1.123821
v 0.369804 0.967713 0.283500
v 0.229072 0.869933 0.283500
v 0.229072 0.869933 -1.123822
v 0.229072 0.967713 0.283500
v 0.229072 0.967713 -1.123821
v -0.912422 0.869933 0.283500
v -0.912422 0.869933 -1.123822
v -0.912422 0.967713 0.283499
v -0.912422 0.967713 -1.123822
v -1.037517 0.869933 -0.983867
v 0.369804 0.869933 -0.983867
v -1.037517 0.967713 -0.983867
v 0.369804 0.967713 -0.983867
v 0.229072 0.967713 -0.983867
v 0.229072 0.869933 -0.983867
v -0.912422 0.869933 -0.983867
v -0.912422 0.967713 -0.983867
v 0.369804 0.869933 0.158328
v 0.369804 0.967713 0.158328
v 0.229072 0.869933 0.158328
v -0.912422 0.869933 0.158328
v -1.037517 0.869933 0.158328
v -1.037518 0.967713 0.158327
v 0.229072 0.967713 0.158328
v -0.912422 0.967713 0.158327
v -1.037517 -0.152739 -0.983867
v -1.037517 -0.152739 -1.123822
v 0.229072 -0.152739 0.283500
v 0.369804 -0.152739 0.283500
v 0.229072 -0.152739 -1.123822
v 0.369804 -0.152739 -1.123822
v 0.369804 -0.152739 0.158328
v 0.229072 -0.152739 0.158328
v -1.037517 -0.152739 0.283500
v -0.912422 -0.152739 0.283500
v -0.912422 -0.152739 -1.123822
v -0.912422 -0.152739 0.158328
v 0.369804 -0.152739 -0.983867
v 0.229072 -0.152739 -0.983867
v -0.912422 -0.152739 -0.983867
v -1.037517 -0.152739 0.158328
vt 0.0000 0.0000
vt 1.0000 0.0000
vt 1.0000 1.0000
vt 0.0000 1.0000
vt 0.0000 0.0000
vt 1.0000 0.0000
vt 1.0000 1.0000
vt 0.0000 1.0000
vt 0.0000 0.0000
vt 1.0000 0.0000
vt 1.0000 1.0000
vt 0.0000 1.0000
vt 0.0000 0.0000
vt 1.0000 0.0000
vt 0.0000 1.0000
vt 0.0000 0.0000
vt 1.0000 0.0000
vt 1.0000 1.0000
vt 0.0000 1.0000
vt 0.0000 0.0000
vt 1.0000 0.0000
vt 1.0000 1.0000
vt 0.0000 1.0000
vt 0.0000 0.0000
vt 1.0000 0.0000
vt 1.0000 1.0000
vt 0.0000 1.0000
vt 0.0000 0.0000
vt 1.0000 0.0000
vt 1.0000 1.0000
vt 0.0000 1.0000
vt 0.0000 0.0000
vt 1.0000 0.0000
vt 0.0000 1.0000
vt 0.0000 0.0000
vt 1.0000 1.0000
vt 0.0000 1.0000
vt 0.0000 0.0000
vt 1.0000 0.0000
vt 1.0000 1.0000
vt 0.0000 1.0000
vt 0.0000 0.0000
vt 1.0000 0.0000
vt 1.0000 1.0000
vt 0.0000 1.0000
vt 1.0000 0.0000
vt 0.0000 1.0000
vt 0.0000 0.0000
vt 1.0000 0.0000
vt 1.0000 1.0000
vt 0.0000 1.0000
vt 0.0000 0.0000
vt 1.0000 0.0000
vt 1.0000 1.0000
vt 0.0000 1.0000
vt 0.0000 0.0000
vt 1.0000 0.0000
vt 1.0000 1.0000
vt 0.0000 1.0000
vt 0.0000 0.0000
vt 1.0000 0.0000
vt 1.0000 1.0000
vt 0.0000 1.0000
vt 0.0000 0.0000
vt 1.0000 0.0000
vt 1.0000 1.0000
vt 0.0000 1.0000
vt 0.0000 0.0000
vt 1.0000 0.0000
vt 1.0000 1.0000
vt 0.0000 1.0000
vt 1.0000 0.0000
vt 1.0000 1.0000
vt 0.0000 1.0000
vt 0.0000 0.0000
vt 0.0000 1.0000
vt 0.0000 0.0000
vt 1.0000 1.0000
vt 0.0000 1.0000
vt 0.0000 0.0000
vt 1.0000 1.0000
vt 0.0000 1.0000
vt 1.0000 0.0000
vt 1.0000 1.0000
vt 0.0000 1.0000
vt 0.0000 0.0000
vt 1.0000 0.0000
vt 1.0000 1.0000
vt 0.0000 1.0000
vt 1.0000 0.0000
vt 1.0000 1.0000
vt 0.0000 1.0000
vt 1.0000 0.0000
vt 1.0000 1.0000
vt 0.0000 1.0000
vt 1.0000 1.0000
vt 0.0000 1.0000
vt 1.0000 0.0000
vt 1.0000 1.0000
vt 0.0000 1.0000
vt 0.0000 0.0000
vt 1.0000 0.0000
vt 1.0000 1.0000
vt 0.0000 0.0000
vt 1.0000 0.0000
vt 0.0000 1.0000
vt 0.0000 0.0000
vt 1.0000 0.0000
vt 1.0000 1.0000
vt 0.0000 1.0000
vt 0.0000 0.0000
vt 1.0000 0.0000
vt 1.0000 0.0000
vt 1.0000 1.0000
vt 0.0000 1.0000
vt 1.0000 0.0000
vt 1.0000 1.0000
vt 0.0000 1.0000
vt 1.0000 1.0000
vt 1.0000 0.0000
vt 0.0000 1.0000
vt 0.0000 0.0000
vt 1.0000 1.0000
vt 1.0000 1.0000
vt 0.0000 1.0000
vt 1.0000 0.0000
vt 0.0000 1.0000
vt 0.0000 0.0000
vt 1.0000 0.0000
vt 1.0000 1.0000
vt 0.0000 1.0000
vt 1.0000 0.0000
vt 1.0000 1.0000
vt 0.0000 1.0000
vt 0.0000 0.0000
vt 1.0000 0.0000
vt 1.0000 1.0000
vt 0.0000 1.0000
vt 1.0000 1.0000
vt 0.0000 1.0000
vt 1.0000 0.0000
vt 1.0000 1.0000
vt 0.0000 1.0000
vn 0.0000 0.0000 -1.0000
vn 0.0000 1.0000 0.0000
vn -1.0000 0.0000 -0.0000
vn 1.0000 -0.0000 0.0000
vn -0.0000 0.0000 1.0000
vn 0.0000 -1.0000 -0.0000
usemtl Material
s off
f 2/1/1 14/2/1 43/3/1 34/4/1
f 21/5/2 20/6/2 7/7/2 12/8/2
f 17/9/3 19/10/3 6/11/3 2/12/3
f 10/13/1 12/14/1 7/7/1 3/15/1
f 25/16/4 26/17/4 8/18/4 4/19/4
f 11/20/5 9/21/5 4/22/5 8/23/5
f 15/24/5 13/25/5 9/26/5 11/27/5
f 14/28/1 16/29/1 12/30/1 10/31/1
f 24/32/2 21/33/2 12/30/2 16/34/2
f 23/35/6 14/2/6 10/36/6 22/37/6
f 18/38/5 22/39/5 46/40/5 45/41/5
f 19/42/2 24/43/2 16/44/2 6/45/2
f 2/1/1 6/46/1 16/44/1 14/47/1
f 5/48/5 1/49/5 13/50/5 15/51/5
f 30/52/2 32/53/2 24/54/2 19/55/2
f 29/56/6 17/57/6 23/58/6 28/59/6
f 28/60/6 23/61/6 22/62/6 27/63/6
f 32/64/2 31/65/2 21/66/2 24/67/2
f 3/68/4 7/69/4 20/70/4 18/71/4
f 29/56/3 30/72/3 19/73/3 17/74/3
f 31/75/2 26/17/2 20/70/2 21/76/2
f 27/77/6 22/39/6 18/78/6 25/79/6
f 13/80/5 1/49/5 41/81/5 42/82/5
f 11/20/2 8/83/2 26/84/2 31/85/2
f 1/86/3 5/87/3 30/88/3 29/89/3
f 15/24/2 11/90/2 31/91/2 32/92/2
f 13/80/6 28/93/6 27/94/6 9/95/6
f 29/56/1 28/93/1 44/96/1 48/97/1
f 5/48/2 15/98/2 32/99/2 30/100/2
f 18/38/4 20/6/4 26/84/4 25/79/4
f 46/101/6 37/102/6 38/103/6 45/41/6
f 33/104/6 34/105/6 43/3/6 47/106/6
f 35/107/6 40/108/6 39/109/6 36/110/6
f 41/111/6 48/112/6 44/96/6 42/82/6
f 3/68/4 18/113/4 45/114/4 38/115/4
f 17/9/3 2/116/3 34/117/3 33/118/3
f 23/35/5 17/57/5 33/119/5 47/106/5
f 27/77/1 25/120/1 39/109/1 40/121/1
f 4/122/5 9/21/5 35/123/5 36/110/5
f 28/60/4 13/25/4 42/124/4 44/125/4
f 10/13/1 3/126/1 38/103/1 37/127/1
f 22/128/3 10/129/3 37/130/3 46/131/3
f 1/86/3 29/132/3 48/133/3 41/134/3
f 9/135/3 27/136/3 40/137/3 35/138/3
f 14/28/4 23/61/4 47/139/4 43/140/4
f 25/16/4 4/141/4 36/142/4 39/143/4
